HIERARCHY
ROOT hips
{
	OFFSET -0.003675 0.299928 -0.021708
	CHANNELS 6 Xposition Yposition Zposition Xrotation Yrotation Zrotation
	JOINT LowerBack
	{
		OFFSET 0.000919 0.177588 0.009275
		CHANNELS 3 Xrotation Yrotation Zrotation
		JOINT spine
		{
			OFFSET 0.000919 0.177588 0.009275
			CHANNELS 3 Xrotation Yrotation Zrotation
			JOINT chest
			{
				OFFSET 0.000456 0.100015 0.004638
				CHANNELS 3 Xrotation Yrotation Zrotation
				JOINT neck
				{
					OFFSET 0.000456 0.100015 0.004638
					CHANNELS 3 Xrotation Yrotation Zrotation
					JOINT head
					{
						OFFSET 0.000924 0.155147 0.009274
						CHANNELS 6 Xposition Yposition Zposition Xrotation Yrotation Zrotation
						End Site
						{
							OFFSET 0.000000 0.153400 0.000000
						}
					}
				}
				JOINT shoulder.L
				{
					OFFSET 0.019937 0.078966 0.057518
					CHANNELS 6 Xposition Yposition Zposition Yrotation Xrotation Zrotation
					JOINT upper_arm.L
					{
						OFFSET 0.177024 -0.020465 -0.095062
						CHANNELS 6 Xposition Yposition Zposition Xrotation Yrotation Zrotation
						JOINT forearm.L
						{
							OFFSET 0.247100 -0.135500 -0.061800
							CHANNELS 3 Xrotation Yrotation Zrotation
							JOINT hand.L
							{
								OFFSET 0.217000 -0.143000 0.039300
								CHANNELS 3 Xrotation Yrotation Zrotation
								JOINT palm.01.L
								{
									OFFSET 0.021770 -0.038291 0.012954
									CHANNELS 6 Xposition Yposition Zposition Yrotation Xrotation Zrotation
									JOINT f_index.01.L
									{
										OFFSET 0.053215 -0.044137 0.008236
										CHANNELS 3 Xrotation Yrotation Zrotation
										JOINT f_index.02.L
										{
											OFFSET 0.036108 -0.024723 -0.010656
											CHANNELS 3 Xrotation Yrotation Zrotation
											JOINT f_index.03.L
											{
												OFFSET 0.021342 -0.014948 -0.010846
												CHANNELS 3 Xrotation Yrotation Zrotation
												End Site
												{
													OFFSET 0.015600 -0.009860 -0.013421
												}
											}
										}
									}
									JOINT thumb.01.L
									{
										OFFSET -0.009090 -0.002348 -0.024223
										CHANNELS 6 Xposition Yposition Zposition Xrotation Yrotation Zrotation
										JOINT thumb.02.L
										{
											OFFSET 0.019713 -0.035076 -0.011120
											CHANNELS 3 Xrotation Yrotation Zrotation
											JOINT thumb.03.L
											{
												OFFSET 0.024877 -0.021748 -0.005176
												CHANNELS 3 Xrotation Yrotation Zrotation
												End Site
												{
													OFFSET 0.016125 -0.013029 -0.001569
												}
											}
										}
									}
								}
								JOINT palm.02.L
								{
									OFFSET 0.032823 -0.025104 0.012281
									CHANNELS 6 Xposition Yposition Zposition Yrotation Xrotation Zrotation
									JOINT f_middle.01.L
									{
										OFFSET 0.055723 -0.038469 0.008037
										CHANNELS 3 Xrotation Yrotation Zrotation
										JOINT f_middle.02.L
										{
											OFFSET 0.038167 -0.027473 -0.015582
											CHANNELS 3 Xrotation Yrotation Zrotation
											JOINT f_middle.03.L
											{
												OFFSET 0.021707 -0.016587 -0.017037
												CHANNELS 3 Xrotation Yrotation Zrotation
												End Site
												{
													OFFSET 0.014112 -0.010584 -0.014294
												}
											}
										}
									}
								}
								JOINT palm.03.L
								{
									OFFSET 0.039230 -0.011402 0.008390
									CHANNELS 6 Xposition Yposition Zposition Yrotation Xrotation Zrotation
									JOINT f_ring.01.L
									{
										OFFSET 0.061796 -0.031470 0.007910
										CHANNELS 3 Xrotation Yrotation Zrotation
										JOINT f_ring.02.L
										{
											OFFSET 0.033092 -0.023401 -0.019127
											CHANNELS 3 Xrotation Yrotation Zrotation
											JOINT f_ring.03.L
											{
												OFFSET 0.021392 -0.015362 -0.017824
												CHANNELS 3 Xrotation Yrotation Zrotation
												End Site
												{
													OFFSET 0.008670 -0.007297 -0.014686
												}
											}
										}
									}
								}
								JOINT palm.04.L
								{
									OFFSET 0.043417 0.002450 0.002889
									CHANNELS 6 Xposition Yposition Zposition Yrotation Xrotation Zrotation
									JOINT f_pinky.01.L
									{
										OFFSET 0.069986 -0.026156 0.003627
										CHANNELS 3 Xrotation Yrotation Zrotation
										JOINT f_pinky.02.L
										{
											OFFSET 0.018520 -0.012813 -0.016429
											CHANNELS 3 Xrotation Yrotation Zrotation
											JOINT f_pinky.03.L
											{
												OFFSET 0.013822 -0.009796 -0.014947
												CHANNELS 3 Xrotation Yrotation Zrotation
												End Site
												{
													OFFSET 0.007238 -0.006103 -0.011657
												}
											}
										}
									}
								}
							}
						}
					}
				}
				JOINT shoulder.R
				{
					OFFSET -0.016662 0.078957 0.057696
					CHANNELS 6 Xposition Yposition Zposition Yrotation Xrotation Zrotation
					JOINT upper_arm.R
					{
						OFFSET -0.176972 -0.020537 -0.095144
						CHANNELS 6 Xposition Yposition Zposition Xrotation Yrotation Zrotation
						JOINT forearm.R
						{
							OFFSET -0.247100 -0.135500 -0.061800
							CHANNELS 3 Xrotation Yrotation Zrotation
							JOINT hand.R
							{
								OFFSET -0.217000 -0.143000 0.039300
								CHANNELS 3 Xrotation Yrotation Zrotation
								JOINT palm.01.R
								{
									OFFSET -0.021773 -0.038278 0.012988
									CHANNELS 6 Xposition Yposition Zposition Yrotation Xrotation Zrotation
									JOINT f_index.01.R
									{
										OFFSET -0.053212 -0.044139 0.008249
										CHANNELS 3 Xrotation Yrotation Zrotation
										JOINT f_index.02.R
										{
											OFFSET -0.036049 -0.024835 -0.010634
											CHANNELS 3 Xrotation Yrotation Zrotation
											JOINT f_index.03.R
											{
												OFFSET -0.021371 -0.014881 -0.010866
												CHANNELS 3 Xrotation Yrotation Zrotation
												End Site
												{
													OFFSET -0.015584 -0.009883 -0.013422
												}
											}
										}
									}
									JOINT thumb.01.R
									{
										OFFSET 0.009113 -0.002381 -0.024211
										CHANNELS 6 Xposition Yposition Zposition Xrotation Yrotation Zrotation
										JOINT thumb.02.R
										{
											OFFSET -0.019694 -0.035097 -0.011088
											CHANNELS 3 Xrotation Yrotation Zrotation
											JOINT thumb.03.R
											{
												OFFSET -0.024867 -0.021762 -0.005168
												CHANNELS 3 Xrotation Yrotation Zrotation
												End Site
												{
													OFFSET -0.016120 -0.013036 -0.001565
												}
											}
										}
									}
								}
								JOINT palm.02.R
								{
									OFFSET -0.032828 -0.025095 0.012286
									CHANNELS 6 Xposition Yposition Zposition Yrotation Xrotation Zrotation
									JOINT f_middle.01.R
									{
										OFFSET -0.055721 -0.038472 0.008040
										CHANNELS 3 Xrotation Yrotation Zrotation
										JOINT f_middle.02.R
										{
											OFFSET -0.038101 -0.027593 -0.015557
											CHANNELS 3 Xrotation Yrotation Zrotation
											JOINT f_middle.03.R
											{
												OFFSET -0.021730 -0.016530 -0.017054
												CHANNELS 3 Xrotation Yrotation Zrotation
												End Site
												{
													OFFSET -0.014096 -0.010608 -0.014293
												}
											}
										}
									}
								}
								JOINT palm.03.R
								{
									OFFSET -0.039192 -0.011488 0.008390
									CHANNELS 6 Xposition Yposition Zposition Yrotation Xrotation Zrotation
									JOINT f_ring.01.R
									{
										OFFSET -0.061839 -0.031387 0.007876
										CHANNELS 3 Xrotation Yrotation Zrotation
										JOINT f_ring.02.R
										{
											OFFSET -0.033068 -0.023437 -0.019125
											CHANNELS 3 Xrotation Yrotation Zrotation
											JOINT f_ring.03.R
											{
												OFFSET -0.021371 -0.015393 -0.017822
												CHANNELS 3 Xrotation Yrotation Zrotation
												End Site
												{
													OFFSET -0.008654 -0.007321 -0.014684
												}
											}
										}
									}
								}
								JOINT palm.04.R
								{
									OFFSET -0.043421 0.002443 0.002845
									CHANNELS 6 Xposition Yposition Zposition Yrotation Xrotation Zrotation
									JOINT f_pinky.01.R
									{
										OFFSET -0.069983 -0.026169 0.003599
										CHANNELS 3 Xrotation Yrotation Zrotation
										JOINT f_pinky.02.R
										{
											OFFSET -0.018501 -0.012842 -0.016428
											CHANNELS 3 Xrotation Yrotation Zrotation
											JOINT f_pinky.03.R
											{
												OFFSET -0.013806 -0.009821 -0.014946
												CHANNELS 3 Xrotation Yrotation Zrotation
												End Site
												{
													OFFSET -0.007226 -0.006121 -0.011655
												}
											}
										}
									}
								}
							}
						}
					}
				}
			}
		}
	}
	JOINT pelvis.L
	{
		OFFSET 0.000000 0.000000 0.000000
		CHANNELS 6 Xposition Yposition Zposition Xrotation Yrotation Zrotation
		JOINT thigh.L
		{
			OFFSET 0.101675 0.001054 -0.000000
			CHANNELS 3 Xrotation Yrotation Zrotation
			JOINT shin.L
			{
				OFFSET 0.000000 -0.534800 0.041000
				CHANNELS 3 Xrotation Yrotation Zrotation
				JOINT foot.L
				{
					OFFSET 0.000000 -0.452000 -0.044800
					CHANNELS 3 Xrotation Yrotation Zrotation
					JOINT toe.L
					{
						OFFSET -0.000000 -0.068500 0.109600
						CHANNELS 3 Xrotation Yrotation Zrotation
						End Site
						{
							OFFSET -0.000000 0.000000 0.067200
						}
					}
				}
				JOINT heel.L
				{
					OFFSET 0.000000 -0.452000 -0.044800
					CHANNELS 3 Xrotation Yrotation Zrotation
					JOINT heel.02.L
					{
						OFFSET -0.038000 -0.085200 0.016200
						CHANNELS 6 Xposition Yposition Zposition Xrotation Yrotation Zrotation
						End Site
						{
							OFFSET 0.080000 -0.000000 0.000000
						}
					}
				}
			}
		}
	}
	JOINT pelvis.R
	{
		OFFSET 0.000000 0.000000 0.000000
		CHANNELS 6 Xposition Yposition Zposition Xrotation Yrotation Zrotation
		JOINT thigh.R
		{
			OFFSET -0.094325 0.001054 0.000000
			CHANNELS 3 Xrotation Yrotation Zrotation
			JOINT shin.R
			{
				OFFSET 0.000000 -0.534800 0.041000
				CHANNELS 3 Xrotation Yrotation Zrotation
				JOINT foot.R
				{
					OFFSET 0.000000 -0.452000 -0.044800
					CHANNELS 3 Xrotation Yrotation Zrotation
					JOINT toe.R
					{
						OFFSET -0.000000 -0.068500 0.109600
						CHANNELS 3 Xrotation Yrotation Zrotation
						End Site
						{
							OFFSET -0.000000 0.000000 0.067200
						}
					}
				}
				JOINT heel.R
				{
					OFFSET 0.000000 -0.452000 -0.044800
					CHANNELS 3 Xrotation Yrotation Zrotation
					JOINT heel.02.R
					{
						OFFSET 0.038000 -0.085200 0.016200
						CHANNELS 6 Xposition Yposition Zposition Xrotation Yrotation Zrotation
						End Site
						{
							OFFSET -0.080000 0.000000 -0.000000
						}
					}
				}
			}
		}
	}
}
MOTION
Frames: 4
Frame Time: 0.041667
-0.016252 0.233032 -0.048530 8.109115 25.682457 -45.015465 0.000002 -0.000004 0.000001 0.000004 -0.000000 0.000002 0.000000 -0.000001 0.000001 0.000001 -0.000004 0.000002 0.000924 0.155147 0.009274 26.246165 -0.136099 49.229179 0.019937 0.078966 0.057518 53.870132 18.176988 39.820662 0.177024 -0.020465 -0.095062 -1.943458 -47.401342 27.072507 19.716769 -6.354380 88.088950 0.000000 -0.000002 -0.000004 0.021770 -0.038291 0.012954 0.000003 0.000001 -0.000002 0.000001 -0.000003 -0.000001 0.000006 0.000003 0.000007 0.000003 0.000002 0.000002 -0.009090 -0.002348 -0.024223 0.000001 -0.000003 0.000000 -0.000000 0.000005 0.000002 0.000001 -0.000000 -0.000006 0.032823 -0.025104 0.012281 -0.000001 0.000001 0.000002 -0.000002 -0.000002 -0.000005 -0.000000 -0.000003 0.000001 0.000002 0.000003 0.000003 0.039230 -0.011402 0.008390 0.000006 -0.000000 0.000004 -0.000003 0.000000 -0.000000 -0.000001 0.000003 -0.000001 -0.000001 -0.000001 0.000004 0.043417 0.002450 0.002889 0.000005 -0.000001 -0.000007 0.000000 -0.000008 0.000002 -0.000001 0.000004 0.000003 0.000002 0.000000 -0.000001 -0.016662 0.078957 0.057696 53.386528 18.717097 -89.252281 -0.176972 -0.020537 -0.095144 -79.767949 13.057254 36.034230 13.542006 13.004877 -66.889470 0.000001 -0.000001 0.000002 -0.021773 -0.038278 0.012988 -0.000006 -0.000003 -0.000002 -0.000004 0.000001 -0.000001 -0.000002 0.000003 -0.000007 -0.000000 0.000000 0.000001 0.009114 -0.002381 -0.024212 -0.000000 0.000000 0.000001 -0.000001 -0.000006 -0.000002 -0.000001 -0.000003 -0.000003 -0.032828 -0.025095 0.012286 -0.000004 -0.000003 0.000001 -0.000001 0.000001 -0.000005 0.000003 0.000003 -0.000003 -0.000002 -0.000002 -0.000005 -0.039192 -0.011488 0.008390 -0.000002 -0.000003 0.000003 0.000002 0.000005 -0.000005 -0.000003 0.000000 0.000002 0.000001 -0.000003 -0.000005 -0.043421 0.002442 0.002845 -0.000006 -0.000004 0.000000 -0.000006 0.000000 -0.000001 -0.000000 -0.000004 -0.000000 -0.000002 -0.000000 0.000002 -0.000000 0.000000 -0.000000 -1.883330 -1.839710 19.695807 187.754674 -2.453551 -33.677682 122.877398 -1.208107 12.287073 -0.000003 0.000001 -0.000001 0.000001 0.000001 -0.000002 -0.000002 -0.000001 0.000003 -0.038000 -0.085200 0.016200 0.000005 -0.000003 -0.000001 0.000000 0.000000 -0.000000 -1.901681 -1.846488 20.929404 -95.309177 -1.031763 -18.407080 135.181629 -3.726822 41.089400 -0.000005 -0.000002 0.000002 -0.000001 -0.000003 0.000002 -0.000002 -0.000002 0.000002 0.038000 -0.085200 0.016200 -0.000003 0.000000 0.000000 
-0.007002 0.245291 -0.042112 -7.338606 27.529959 1.522690 -0.000000 0.000000 0.000000 0.000000 -0.000001 0.000000 0.000001 -0.000001 0.000000 0.000001 -0.000000 -0.000000 0.000924 0.155147 0.009274 17.164899 -0.024919 -10.356769 0.019937 0.078966 0.057518 83.988125 29.478127 24.088960 0.177025 -0.020465 -0.095062 -19.624510 12.942875 -81.761647 3.750336 -17.361808 45.813005 0.000000 0.000001 0.000003 0.021770 -0.038291 0.012954 0.000003 -0.000002 0.000005 -0.000002 -0.000001 -0.000000 0.000002 -0.000003 0.000005 -0.000001 -0.000001 0.000001 -0.009090 -0.002348 -0.024224 -0.000000 0.000000 -0.000003 -0.000002 0.000002 0.000001 -0.000001 0.000002 0.000001 0.032823 -0.025104 0.012281 0.000000 -0.000001 0.000007 0.000000 0.000001 -0.000003 -0.000003 0.000003 0.000002 -0.000000 -0.000002 0.000004 0.039230 -0.011402 0.008390 0.000003 -0.000003 0.000006 0.000002 0.000000 -0.000000 -0.000000 0.000005 0.000001 -0.000000 0.000000 0.000003 0.043417 0.002450 0.002889 0.000001 -0.000002 0.000003 -0.000002 -0.000003 0.000001 0.000002 0.000003 -0.000000 -0.000002 -0.000002 -0.000001 -0.016662 0.078957 0.057696 86.455681 23.685184 -46.634466 -0.176972 -0.020537 -0.095144 -12.343217 -19.324372 98.383889 1.133996 -1.236911 4.190785 0.000000 -0.000000 -0.000002 -0.021773 -0.038278 0.012988 0.000001 -0.000001 -0.000003 0.000001 0.000003 -0.000004 0.000001 -0.000002 -0.000005 -0.000001 -0.000003 0.000003 0.009113 -0.002381 -0.024211 -0.000000 0.000000 0.000003 0.000003 -0.000001 0.000005 0.000000 0.000000 -0.000003 -0.032828 -0.025095 0.012286 0.000003 -0.000000 -0.000001 -0.000000 -0.000000 -0.000003 0.000002 0.000001 0.000001 -0.000003 0.000003 -0.000008 -0.039192 -0.011488 0.008390 0.000001 0.000000 -0.000000 0.000001 0.000003 -0.000003 -0.000001 -0.000001 -0.000005 -0.000001 0.000001 -0.000001 -0.043421 0.002443 0.002845 0.000001 0.000001 -0.000001 -0.000007 0.000004 -0.000003 0.000002 0.000002 -0.000000 0.000002 -0.000004 0.000002 0.000000 0.000000 -0.000000 -1.599101 0.291454 -4.636043 278.961591 -3.338815 -44.145135 143.086384 -1.952925 20.124719 -0.000002 -0.000004 0.000005 -0.000002 -0.000002 0.000001 0.000000 -0.000001 0.000002 -0.038000 -0.085200 0.016200 0.000001 -0.000003 -0.000001 -0.000000 0.000000 0.000000 -1.555708 0.288385 -3.402070 -77.745926 -0.582300 -12.106745 116.605085 -4.716588 56.352701 -0.000003 0.000001 0.000002 0.000003 -0.000000 -0.000002 0.000002 0.000001 0.000000 0.038000 -0.085200 0.016200 -0.000002 -0.000002 -0.000002 
-0.012089 0.245489 -0.045172 -3.229633 36.939821 -2.795062 -0.000000 -0.000002 0.000000 0.000000 -0.000001 0.000000 0.000000 -0.000001 0.000000 0.000001 -0.000004 -0.000000 0.000924 0.155148 0.009274 13.478494 -0.018108 -4.967178 0.019937 0.078966 0.057518 76.344412 26.676366 26.468848 0.177025 -0.020465 -0.095062 -22.022555 12.210403 -75.545806 -9.555973 -27.240709 18.210715 -0.000002 0.000001 -0.000001 0.021770 -0.038291 0.012954 0.000002 0.000003 0.000005 -0.000003 -0.000001 0.000006 0.000001 -0.000002 0.000004 0.000001 0.000005 -0.000002 -0.009090 -0.002348 -0.024223 0.000000 0.000000 0.000003 0.000000 -0.000001 -0.000001 -0.000003 -0.000001 0.000001 0.032823 -0.025104 0.012281 -0.000001 0.000005 0.000007 -0.000002 0.000003 -0.000005 -0.000003 -0.000007 0.000006 0.000000 -0.000002 0.000006 0.039230 -0.011402 0.008390 0.000000 0.000001 0.000009 0.000005 -0.000000 0.000005 0.000003 0.000005 0.000001 0.000007 -0.000003 0.000005 0.043417 0.002450 0.002889 0.000003 0.000002 0.000005 -0.000003 -0.000004 0.000001 -0.000001 0.000000 0.000001 0.000001 0.000002 -0.000002 -0.016662 0.078957 0.057696 80.244464 23.504914 -53.200555 -0.176972 -0.020537 -0.095144 -20.246993 -25.681009 100.841596 -0.303058 0.338028 -3.235029 -0.000003 -0.000001 0.000001 -0.021773 -0.038278 0.012988 0.000001 -0.000001 -0.000003 -0.000001 0.000001 -0.000003 0.000001 0.000001 -0.000008 -0.000003 -0.000000 -0.000006 0.009114 -0.002381 -0.024212 0.000002 -0.000003 0.000000 0.000001 -0.000000 0.000000 0.000000 -0.000002 -0.000004 -0.032828 -0.025095 0.012286 0.000001 -0.000001 -0.000003 0.000000 -0.000001 -0.000001 0.000003 -0.000003 0.000001 -0.000006 0.000001 -0.000004 -0.039192 -0.011488 0.008390 -0.000001 -0.000000 -0.000002 0.000001 0.000006 -0.000003 0.000003 -0.000000 -0.000000 -0.000003 -0.000002 -0.000002 -0.043421 0.002443 0.002845 -0.000000 0.000000 -0.000001 -0.000002 0.000004 -0.000001 0.000000 -0.000006 0.000000 0.000003 -0.000004 0.000002 0.000000 0.000000 -0.000000 -1.628817 0.180977 -3.247036 273.551317 -2.626585 -32.248690 144.007599 -1.806459 18.557004 -0.000002 0.000001 -0.000003 0.000001 0.000000 -0.000001 0.000002 0.000001 -0.000002 -0.038000 -0.085200 0.016200 -0.000001 0.000000 -0.000000 -0.000000 0.000000 -0.000000 -1.588205 0.179094 -2.012970 -78.384767 -1.391209 -23.208918 112.674557 -4.712178 56.271757 0.000003 0.000002 0.000004 0.000001 0.000001 -0.000000 0.000007 0.000001 0.000001 0.038000 -0.085200 0.016200 0.000001 -0.000001 -0.000000 
-0.019147 0.248877 -0.046938 -0.869142 47.400215 -3.553090 -0.000000 -0.000001 0.000000 0.000000 -0.000000 -0.000000 -0.000000 -0.000000 -0.000000 -0.000000 -0.000002 0.000000 0.000924 0.155147 0.009274 17.103354 -0.021716 -5.645875 0.019937 0.078966 0.057518 64.282366 21.269305 25.030519 0.177025 -0.020466 -0.095062 -27.571472 13.181629 -72.426998 -13.431500 -24.273116 7.988993 -0.000002 -0.000001 0.000003 0.021770 -0.038291 0.012954 0.000001 0.000003 0.000003 0.000001 -0.000001 -0.000000 0.000001 0.000002 0.000012 0.000003 0.000004 -0.000000 -0.009090 -0.002348 -0.024223 0.000005 -0.000003 -0.000005 0.000000 -0.000001 -0.000001 -0.000005 0.000000 -0.000002 0.032823 -0.025104 0.012281 -0.000004 0.000001 0.000007 0.000000 0.000001 -0.000008 -0.000010 -0.000004 0.000005 0.000001 -0.000003 0.000001 0.039230 -0.011402 0.008390 0.000002 0.000001 0.000004 -0.000001 0.000002 -0.000000 0.000002 0.000003 0.000001 0.000003 -0.000006 0.000001 0.043417 0.002450 0.002889 0.000000 -0.000000 0.000002 -0.000002 -0.000003 -0.000002 -0.000000 0.000001 -0.000003 -0.000002 -0.000005 0.000000 -0.016662 0.078956 0.057696 69.452382 18.530959 -50.144548 -0.176972 -0.020537 -0.095144 -27.458771 -29.337452 94.796947 -1.431864 3.782115 -13.314972 -0.000003 0.000002 0.000002 -0.021773 -0.038278 0.012988 -0.000003 -0.000001 0.000000 -0.000001 0.000001 -0.000001 0.000002 0.000001 -0.000004 0.000002 0.000000 0.000004 0.009114 -0.002381 -0.024212 -0.000000 -0.000001 -0.000003 -0.000001 0.000000 -0.000001 -0.000002 0.000002 -0.000003 -0.032828 -0.025095 0.012286 -0.000001 -0.000003 -0.000001 0.000001 0.000000 -0.000001 0.000002 0.000004 -0.000002 0.000000 0.000000 0.000003 -0.039192 -0.011488 0.008390 -0.000001 -0.000003 0.000003 0.000000 0.000003 -0.000003 0.000001 -0.000004 0.000002 -0.000002 -0.000002 -0.000003 -0.043421 0.002443 0.002845 -0.000002 -0.000002 0.000002 -0.000004 0.000006 -0.000001 -0.000001 -0.000002 -0.000002 -0.000003 0.000002 0.000003 0.000000 0.000000 -0.000000 -1.637092 0.293543 -4.628539 272.386633 -1.437820 -15.272931 143.586573 -1.341049 13.664302 0.000000 0.000000 -0.000002 -0.000001 0.000000 -0.000002 0.000000 -0.000001 -0.000000 -0.038000 -0.085200 0.016200 0.000002 -0.000001 -0.000000 0.000000 -0.000000 -0.000000 -1.592720 0.290411 -3.394584 -79.331431 -2.249720 -36.097823 113.020165 -4.595233 54.189112 0.000000 -0.000001 0.000006 0.000006 -0.000000 0.000003 0.000003 -0.000001 0.000003 0.038000 -0.085200 0.016200 -0.000003 0.000001 -0.000001 
